<mxfile host="app.diagrams.net" modified="2023-08-11T00:22:03.702Z" agent="Mozilla/5.0 (X11; Linux x86_64) AppleWebKit/537.36 (KHTML, like Gecko) Chrome/115.0.0.0 Safari/537.36" etag="cjcGZeIUP6LdVCmNRlwU" version="21.6.6" type="github">
  <diagram name="Página-1" id="eo9Gp5_RJ7f1d6oGFghQ">
    <mxGraphModel dx="642" dy="308" grid="1" gridSize="10" guides="1" tooltips="1" connect="1" arrows="1" fold="1" page="1" pageScale="1" pageWidth="827" pageHeight="1169" math="0" shadow="0">
      <root>
        <mxCell id="0" />
        <mxCell id="1" parent="0" />
        <mxCell id="EgkvAYyKSwx4btJpQn5A-2" value="&lt;font color=&quot;#ffffff&quot;&gt;&lt;b&gt;Usuário&lt;br&gt;&lt;/b&gt;[pessoa]&lt;br&gt;&lt;br&gt;Com a possibilidade de criar um cadastro e fazer login&lt;/font&gt;" style="rounded=1;whiteSpace=wrap;html=1;fillColor=#29299E;strokeColor=#0D0D9E;" vertex="1" parent="1">
          <mxGeometry x="80" y="150" width="160" height="100" as="geometry" />
        </mxCell>
        <mxCell id="EgkvAYyKSwx4btJpQn5A-1" value="" style="ellipse;whiteSpace=wrap;html=1;aspect=fixed;fillColor=#29299E;strokeColor=#0D0D9E;" vertex="1" parent="1">
          <mxGeometry x="120" y="80" width="80" height="80" as="geometry" />
        </mxCell>
      </root>
    </mxGraphModel>
  </diagram>
</mxfile>
